<svg version="1.1" xmlns:x="&amp;ns_extend;" xmlns:i="&amp;ns_ai;" xmlns:graph="&amp;ns_graphs;" xmlns="http://www.w3.org/2000/svg" xmlns:xlink="http://www.w3.org/1999/xlink" x="0px" y="0px" viewBox="0 0 178.8 170.1" style="enable-background:new 0 0 178.8 170.1;" xml:space="preserve" height="189.873417721519" width="200">
<style type="text/css">
	.st0{fill:#F49528;}
	.st1{fill:#EF7718;}
	.st2{fill:#CF1417;}
	.st3{fill:#E00914;}
	.st4{fill:#E00B15;}
	.st5{fill:#E00D15;}
	.st6{fill:#E00F16;}
	.st7{fill:#E11117;}
	.st8{fill:#E11317;}
	.st9{fill:#E11418;}
	.st10{fill:#E11618;}
	.st11{fill:#E11719;}
	.st12{fill:#E1181A;}
	.st13{fill:#E11A1A;}
	.st14{fill:#E11B1B;}
	.st15{fill:#E11C1B;}
	.st16{fill:#E11D1C;}
	.st17{fill:#E21E1C;}
	.st18{fill:#E21F1D;}
	.st19{fill:#E2201D;}
	.st20{fill:#E2211E;}
	.st21{fill:#E2221F;}
	.st22{fill:#E2231F;}
	.st23{fill:#E22420;}
	.st24{fill:#E22520;}
	.st25{fill:#E22621;}
	.st26{fill:#E22721;}
	.st27{fill:#E32822;}
	.st28{fill:#E32923;}
	.st29{fill:#E32A23;}
	.st30{fill:#E32B24;}
	.st31{fill:#E32C25;}
	.st32{fill:#E32D25;}
	.st33{fill:#E32E26;}
	.st34{fill:#E32E27;}
	.st35{fill:#E32F27;}
	.st36{fill:#E43028;}
	.st37{fill:#E43128;}
	.st38{fill:#E43229;}
	.st39{fill:#E4322A;}
	.st40{fill:#E4332A;}
	.st41{fill:#E4342B;}
	.st42{fill:#E4342C;}
	.st43{fill:#E4352C;}
	.st44{fill:#E4362D;}
	.st45{fill:#E4372D;}
	.st46{fill:#E5372E;}
	.st47{fill:#E5382F;}
	.st48{fill:#E5392F;}
	.st49{fill:#E53930;}
	.st50{fill:#E53A31;}
	.st51{fill:#E53B31;}
	.st52{fill:#E53C32;}
	.st53{fill:#E53C33;}
	.st54{fill:#E53D33;}
	.st55{fill:#E63E34;}
	.st56{fill:#E63E35;}
	.st57{fill:#E63F35;}
	.st58{fill:#E64036;}
	.st59{fill:#E64137;}
	.st60{fill:#E64238;}
	.st61{fill:#E64339;}
	.st62{fill:#E6443A;}
	.st63{fill:#E7453B;}
	.st64{fill:#E7463C;}
	.st65{fill:#E7473C;}
	.st66{fill:#E7473D;}
	.st67{fill:#E7483E;}
	.st68{fill:#E7493E;}
	.st69{fill:#E74A3F;}
	.st70{fill:#E74A40;}
	.st71{fill:#E74B41;}
	.st72{fill:#E84C41;}
	.st73{fill:#E84D42;}
	.st74{fill:#E84D43;}
	.st75{fill:#E84E44;}
	.st76{fill:#E84F44;}
	.st77{fill:#E84F45;}
	.st78{fill:#E85046;}
	.st79{fill:#E85146;}
	.st80{fill:#E85247;}
	.st81{fill:#E85248;}
	.st82{fill:#E95349;}
	.st83{fill:#E95449;}
	.st84{fill:#E9544A;}
	.st85{fill:#E9554B;}
	.st86{fill:#E9564C;}
	.st87{fill:#E9574C;}
	.st88{fill:#E9574D;}
	.st89{fill:#E9584E;}
	.st90{fill:#E9594F;}
	.st91{fill:#EA5A4F;}
	.st92{fill:#EA5A50;}
	.st93{fill:#EA5B51;}
	.st94{fill:#EA5C52;}
	.st95{fill:#EA5D53;}
	.st96{fill:#EA5E54;}
	.st97{fill:#EA5F55;}
	.st98{fill:#EA5F56;}
	.st99{fill:#EA6056;}
	.st100{fill:#EB6157;}
	.st101{fill:#EB6158;}
	.st102{fill:#EB6259;}
	.st103{fill:#EB6359;}
	.st104{fill:#EB635A;}
	.st105{fill:#EB645B;}
	.st106{fill:#EB655C;}
	.st107{fill:#EB655D;}
	.st108{fill:#EB665D;}
	.st109{fill:#EB675E;}
	.st110{fill:#EB675F;}
	.st111{fill:#EC6860;}
	.st112{fill:#EC6960;}
	.st113{fill:#EC6961;}
	.st114{fill:#EC6A62;}
	.st115{fill:#EC6A63;}
	.st116{fill:#EC6B64;}
	.st117{fill:#EC6C64;}
	.st118{fill:#EC6C65;}
	.st119{fill:#EC6D66;}
	.st120{fill:#EC6E67;}
	.st121{fill:#ED6E68;}
	.st122{fill:#ED6F68;}
	.st123{fill:#ED7069;}
	.st124{fill:#ED706A;}
	.st125{fill:#ED716B;}
	.st126{fill:#ED726C;}
	.st127{fill:#ED736C;}
	.st128{fill:#ED736D;}
	.st129{fill:#ED746E;}
	.st130{fill:#EE756F;}
	.st131{fill:#EE7570;}
	.st132{fill:#EE7670;}
	.st133{fill:#EE7771;}
	.st134{fill:#EE7772;}
	.st135{fill:#EE7873;}
	.st136{fill:#EE7974;}
	.st137{fill:#EE7A75;}
	.st138{fill:#EE7B76;}
	.st139{fill:#EE7B77;}
	.st140{fill:#EF7C78;}
	.st141{fill:#EF7D79;}
	.st142{fill:#EF7E7A;}
	.st143{fill:#EF7E7B;}
	.st144{fill:#EF7F7C;}
	.st145{fill:#EF807D;}
	.st146{fill:#EF817E;}
	.st147{fill:#EF827F;}
	.st148{fill:#F08280;}
	.st149{fill:#F08381;}
	.st150{fill:#F08382;}
	.st151{fill:#F08482;}
	.st152{fill:#F08583;}
	.st153{fill:#F08584;}
	.st154{fill:#F08685;}
	.st155{fill:#F08786;}
	.st156{fill:#F08787;}
	.st157{fill:#F18887;}
	.st158{fill:#F18888;}
	.st159{fill:#F18989;}
	.st160{fill:#F18A8A;}
	.st161{fill:#F18A8B;}
	.st162{fill:#FFFFFF;}
</style>
<metadata>
	<sfw xmlns="&amp;ns_sfw;">
		<slices></slices>
		<slicesourcebounds bottomleftorigin="true" height="164.8" width="168.5" x="212.7" y="-440.9"></slicesourcebounds>
	</sfw>
</metadata>
<g id="Layer_1">
</g>
<g id="LOGOS">
	<g>
		<g>
			<g>
				<path class="st0" d="M175.8,111.8c-0.1-2.3-0.4-5.1-1.7-7.1c-1.5-2.6-3.1-5.2-5.3-7.2c-1.8-1.7-4.1-2.6-6.3-3.5
					c-0.8-0.3-3.6-1-7.2-0.9c-0.1,10.9-2.5,21.9-7,31.9c2.5,2.3,5.1,4.8,6.4,7.9c4.4,0.2,8.9-0.8,12.6-3.2c4.1-2.6,7.1-6.9,8-11.6
					C175.6,116,175.9,113.9,175.8,111.8z"></path>
			</g>
			<g>
				<path class="st1" d="M148.3,125c-0.8,1.8-1.7,3.6-2.7,5.4c2.4,1.3,5.1,2.1,7.8,2.4c0.4,0,0.9,0.1,1.3,0.1
					C153.4,129.8,150.8,127.3,148.3,125z"></path>
			</g>
		</g>
		<path class="st2" d="M145.6,130.4c-2.5,0.6-5.4,1.7-6.2,2.9c-4.3,6.9-18.4,27.1-49,31c-14.1,1.8-28.7-0.6-41.5-6.6
			c13.9,8.2,30.8,11.8,46.9,9.6c8.4-1.1,16.4-3.7,24.3-6.8c2.5-1,4.9-2,7.3-3.2c3.4,1.8,7.3,2.5,11.1,1.7c2-0.4,4-0.9,5.8-1.7
			c2-0.9,4.4-2.2,5.8-4c1.8-2.3,3.5-4.6,4.6-7.2c0.9-2.2,0.9-4.5,0.9-6.9c0-1.5,0-3.1-0.3-4.6c-0.1-0.6-0.3-1.2-0.6-1.8
			c-0.4,0-0.9-0.1-1.3-0.1C150.7,132.5,148,131.7,145.6,130.4z"></path>
		<g>
			<path class="st2" d="M103.5,26c3.1-9.8,11.2-17.9,21-21.1c2.9-0.9,5.9-1.4,8.9-1.6c3.1-0.2,6.2,0,9.2,0.7
				c4.5,1.2,8.6,3.9,11.8,7.2c2.4,2.5,4.4,5.4,5.8,8.6c4.3,9.6,3.3,21.4-2.2,30.4c-1.8,2.9-4,5.6-6.9,7.4c-1.5,1-3.2,1.7-4.9,2.4
				c-3.3,1.3-6.7,2.4-10.2,2.9c-9.4,1.3-19.3-2.1-25.8-8.9s-9.3-17.1-7.1-26.3L103.5,26z"></path>
		</g>
		<path class="st3" d="M156.4,93.4c-0.3,40.4-33.4,73.7-74.5,72.9c-40.9-0.8-74.1-29.6-74.5-69.9C6.9,58,40.9,22.8,82.4,20.4
			C125.5,17.9,156.7,53.2,156.4,93.4z"></path>
		<g>
			<path class="st3" d="M70.8,37.2c7.5,7.5,3.5,21.2-12.5,37.3S29,93,21.6,85.5s-6.8-23.3,9.2-39.4S63.3,29.7,70.8,37.2z"></path>
			<path class="st4" d="M70.6,37.2c7.4,7.4,3.5,21.1-12.5,37.1s-29.1,18.4-36.5,11c-7.4-7.4-6.8-23.2,9.2-39.2S63.2,29.8,70.6,37.2z
				"></path>
			<path class="st5" d="M70.5,37.3c7.4,7.4,3.5,21-12.4,36.9S29.2,92.6,21.7,85.2s-6.8-23.1,9.2-39S63.1,29.9,70.5,37.3z"></path>
			<path class="st6" d="M70.3,37.4c7.4,7.4,3.5,20.9-12.3,36.8S29.2,92.4,21.8,85.1c-7.4-7.4-6.7-22.9,9.1-38.8S63,30.1,70.3,37.4z"></path>
			<path class="st7" d="M70.2,37.5c7.3,7.3,3.5,20.8-12.3,36.6s-28.7,18.1-36,10.8S15.2,62.1,31,46.3S62.9,30.2,70.2,37.5z"></path>
			<path class="st8" d="M70.1,37.6c7.3,7.3,3.5,20.7-12.2,36.4S29.3,92.1,22,84.8c-7.3-7.3-6.6-22.7,9-38.4S62.8,30.3,70.1,37.6z"></path>
			<path class="st9" d="M69.9,37.7c7.3,7.3,3.5,20.6-12.2,36.2s-28.4,18-35.6,10.7c-7.3-7.3-6.6-22.6,9-38.2S62.6,30.4,69.9,37.7z"></path>
			<path class="st10" d="M69.8,37.8c7.2,7.2,3.4,20.5-12.1,36S29.4,91.7,22.2,84.5s-6.6-22.5,9-38S62.5,30.6,69.8,37.8z"></path>
			<path class="st11" d="M69.6,37.9c7.2,7.2,3.4,20.4-12,35.9S29.5,91.5,22.3,84.3c-7.2-7.2-6.5-22.4,8.9-37.8S62.4,30.7,69.6,37.9z
				"></path>
			<path class="st12" d="M69.5,38c7.2,7.2,3.4,20.3-12,35.7s-28,17.7-35.1,10.5s-6.5-22.2,8.9-37.6S62.3,30.8,69.5,38z"></path>
			<path class="st13" d="M69.3,38.1c7.1,7.1,3.4,20.2-11.9,35.5S29.6,91.2,22.5,84c-7.1-7.1-6.5-22.1,8.8-37.4S62.2,30.9,69.3,38.1z
				"></path>
			<path class="st14" d="M69.2,38.2c7.1,7.1,3.4,20.1-11.8,35.3S29.6,91,22.6,83.9s-6.4-22,8.8-37.2S62.1,31.1,69.2,38.2z"></path>
			<path class="st15" d="M69,38.2c7,7,3.4,20-11.8,35.2S29.7,90.8,22.7,83.7s-6.4-21.9,8.8-37S62,31.2,69,38.2z"></path>
			<path class="st16" d="M68.9,38.3c7,7,3.3,19.9-11.7,35S29.8,90.6,22.7,83.6c-7-7-6.3-21.8,8.7-36.8S61.9,31.3,68.9,38.3z"></path>
			<path class="st17" d="M68.7,38.4c7,7,3.3,19.8-11.7,34.8S29.8,90.4,22.8,83.5s-6.3-21.7,8.7-36.6S61.8,31.4,68.7,38.4z"></path>
			<path class="st18" d="M68.6,38.5c6.9,6.9,3.3,19.7-11.6,34.6S29.9,90.3,22.9,83.3c-6.9-6.9-6.3-21.5,8.6-36.4
				S61.7,31.6,68.6,38.5z"></path>
			<path class="st19" d="M68.4,38.6c6.9,6.9,3.3,19.6-11.5,34.4s-27,17-33.9,10.1s-6.2-21.4,8.6-36.2S61.5,31.7,68.4,38.6z"></path>
			<path class="st20" d="M68.3,38.7c6.9,6.9,3.3,19.5-11.5,34.3S30,89.9,23.1,83c-6.9-6.9-6.2-21.3,8.6-36S61.4,31.8,68.3,38.7z"></path>
			<path class="st21" d="M68.2,38.8c6.8,6.8,3.3,19.4-11.4,34.1S30,89.7,23.2,82.9S17,61.7,31.7,47S61.3,32,68.2,38.8z"></path>
			<path class="st22" d="M68,38.9c6.8,6.8,3.3,19.3-11.3,33.9s-26.6,16.7-33.4,10s-6.1-21.1,8.5-35.7S61.2,32.1,68,38.9z"></path>
			<path class="st23" d="M67.9,39c6.8,6.8,3.2,19.2-11.3,33.7s-26.5,16.6-33.2,9.9c-6.8-6.8-6.1-20.9,8.4-35.5S61.1,32.2,67.9,39z"></path>
			<path class="st24" d="M67.7,39.1c6.7,6.7,3.2,19.1-11.2,33.6s-26.3,16.6-33,9.8s-6.1-20.8,8.4-35.3S61,32.3,67.7,39.1z"></path>
			<path class="st25" d="M67.6,39.1c6.7,6.7,3.2,19-11.2,33.4S30.2,89,23.6,82.3c-6.7-6.7-6-20.7,8.3-35.1S60.9,32.5,67.6,39.1z"></path>
			<path class="st26" d="M67.4,39.2c6.6,6.6,3.2,18.9-11.1,33.2s-26,16.4-32.7,9.7s-6-20.6,8.3-34.9S60.8,32.6,67.4,39.2z"></path>
			<path class="st27" d="M67.3,39.3c6.6,6.6,3.2,18.8-11,33S30.3,88.6,23.7,82c-6.6-6.6-5.9-20.5,8.3-34.7S60.7,32.7,67.3,39.3z"></path>
			<path class="st28" d="M67.1,39.4c6.6,6.6,3.2,18.7-11,32.8s-25.8,16.2-32.3,9.6c-6.6-6.6-5.9-20.4,8.2-34.5S60.6,32.8,67.1,39.4z
				"></path>
			<path class="st29" d="M67,39.5c6.5,6.5,3.2,18.6-10.9,32.7s-25.6,16.1-32.2,9.5S18,61.5,32.1,47.4S60.4,33,67,39.5z"></path>
			<path class="st30" d="M66.8,39.6C73.3,46.1,70,58.1,56,72.1s-25.5,16-32,9.5c-6.5-6.5-5.8-20.1,8.1-34.1S60.3,33.1,66.8,39.6z"></path>
			<path class="st30" d="M66.7,39.7c6.5,6.5,3.1,18.4-10.8,32.3s-25.3,15.9-31.8,9.4s-5.8-20,8.1-33.9S60.2,33.2,66.7,39.7z"></path>
			<path class="st31" d="M66.5,39.8c6.4,6.4,3.1,18.3-10.7,32.1s-25.2,15.8-31.6,9.4c-6.4-6.4-5.8-19.9,8.1-33.7
				S60.1,33.3,66.5,39.8z"></path>
			<path class="st32" d="M66.4,39.9c6.4,6.4,3.1,18.2-10.6,32s-25.1,15.7-31.5,9.3s-5.7-19.8,8-33.5S60,33.5,66.4,39.9z"></path>
			<path class="st33" d="M66.2,40c6.4,6.4,3.1,18.1-10.6,31.8S30.7,87.4,24.4,81s-5.7-19.6,8-33.3S59.9,33.6,66.2,40z"></path>
			<path class="st34" d="M66.1,40c6.3,6.3,3.1,18-10.5,31.6s-24.8,15.5-31.1,9.2s-5.6-19.5,7.9-33.1S59.8,33.7,66.1,40z"></path>
			<path class="st35" d="M66,40.1c6.3,6.3,3,17.9-10.5,31.4S30.8,87,24.5,80.7c-6.3-6.3-5.6-19.4,7.9-32.9S59.7,33.9,66,40.1z"></path>
			<path class="st36" d="M65.8,40.2c6.3,6.3,3,17.8-10.4,31.2s-24.5,15.3-30.8,9.1s-5.6-19.3,7.9-32.7S59.6,34,65.8,40.2z"></path>
			<path class="st37" d="M65.7,40.3c6.2,6.2,3,17.7-10.3,31.1s-24.4,15.2-30.6,9c-6.2-6.2-5.5-19.2,7.8-32.5S59.4,34.1,65.7,40.3z"></path>
			<path class="st38" d="M65.5,40.4c6.2,6.2,3,17.6-10.3,30.9s-24.2,15.2-30.4,9S19.3,61.2,32.6,48S59.3,34.2,65.5,40.4z"></path>
			<path class="st39" d="M65.4,40.5c6.1,6.1,3,17.5-10.2,30.7s-24.1,15.1-30.2,8.9S19.4,61.2,32.6,48S59.2,34.4,65.4,40.5z"></path>
			<path class="st40" d="M65.2,40.6c6.1,6.1,3,17.4-10.1,30.5s-24,15-30.1,8.9c-6.1-6.1-5.4-18.8,7.7-31.9S59.1,34.5,65.2,40.6z"></path>
			<path class="st41" d="M65.1,40.7C71.1,46.8,68,58,55,71s-23.8,14.9-29.9,8.8s-5.4-18.7,7.7-31.7S59,34.6,65.1,40.7z"></path>
			<path class="st42" d="M64.9,40.8c6,6,2.9,17.2-10,30.2s-23.7,14.8-29.7,8.7c-6-6-5.4-18.6,7.6-31.5S58.9,34.7,64.9,40.8z"></path>
			<path class="st43" d="M64.8,40.9c6,6,2.9,17.1-10,30s-23.6,14.7-29.6,8.7S20,61.1,32.8,48.2S58.8,34.9,64.8,40.9z"></path>
			<path class="st44" d="M64.6,41c6,6,2.9,17-9.9,29.8s-23.4,14.6-29.4,8.6c-6-6-5.3-18.3,7.5-31.2S58.7,35,64.6,41z"></path>
			<path class="st45" d="M64.5,41c5.9,5.9,2.9,16.9-9.8,29.6s-23.3,14.5-29.2,8.6s-5.2-18.2,7.5-31S58.6,35.1,64.5,41z"></path>
			<path class="st46" d="M64.3,41.1c5.9,5.9,2.9,16.8-9.8,29.5s-23.1,14.4-29,8.5S20.3,61,33,48.4S58.5,35.2,64.3,41.1z"></path>
			<path class="st47" d="M64.2,41.2c5.9,5.9,2.9,16.7-9.7,29.3s-23,14.3-28.9,8.5c-5.9-5.9-5.2-18,7.4-30.6S58.3,35.4,64.2,41.2z"></path>
			<path class="st48" d="M64.1,41.3c5.8,5.8,2.9,16.6-9.6,29.1s-22.9,14.2-28.7,8.4S20.6,61,33.1,48.5S58.2,35.5,64.1,41.3z"></path>
			<path class="st49" d="M63.9,41.4c5.8,5.8,2.8,16.5-9.6,28.9s-22.7,14.1-28.5,8.3c-5.8-5.8-5.1-17.8,7.3-30.2S58.1,35.6,63.9,41.4
				z"></path>
			<path class="st50" d="M63.8,41.5c5.7,5.7,2.8,16.4-9.5,28.8s-22.6,14-28.3,8.3s-5.1-17.6,7.3-30S58,35.8,63.8,41.5z"></path>
			<path class="st51" d="M63.6,41.6c5.7,5.7,2.8,16.3-9.5,28.6S31.7,84.1,26,78.4c-5.7-5.7-5-17.5,7.2-29.8S57.9,35.9,63.6,41.6z"></path>
			<path class="st52" d="M63.5,41.7c5.7,5.7,2.8,16.2-9.4,28.4s-22.3,13.8-28,8.2c-5.7-5.7-5-17.4,7.2-29.6S57.8,36,63.5,41.7z"></path>
			<path class="st53" d="M63.3,41.8C69,47.4,66.1,57.9,54,70s-22.2,13.8-27.8,8.1s-5-17.3,7.2-29.4S57.7,36.1,63.3,41.8z"></path>
			<path class="st54" d="M63.2,41.9c5.6,5.6,2.8,16-9.3,28s-22,13.7-27.6,8.1c-5.6-5.6-4.9-17.2,7.1-29.2S57.6,36.3,63.2,41.9z"></path>
			<path class="st55" d="M63,41.9c5.6,5.6,2.7,15.9-9.2,27.9s-21.9,13.6-27.5,8s-4.9-17,7.1-29S57.5,36.4,63,41.9z"></path>
			<path class="st56" d="M62.9,42c5.5,5.5,2.7,15.8-9.1,27.7S32,83.2,26.4,77.7c-5.5-5.5-4.8-16.9,7-28.8S57.4,36.5,62.9,42z"></path>
			<path class="st57" d="M62.7,42.1c5.5,5.5,2.7,15.7-9.1,27.5S32,83,26.5,77.5s-4.8-16.8,7-28.6S57.2,36.6,62.7,42.1z"></path>
			<path class="st58" d="M62.6,42.2c5.5,5.5,2.7,15.6-9,27.3s-21.5,13.3-26.9,7.8s-4.8-16.7,7-28.4S57.1,36.8,62.6,42.2z"></path>
			<path class="st59" d="M62.4,42.3c5.4,5.4,2.7,15.5-9,27.2s-21.3,13.2-26.8,7.8C21.3,71.8,22,60.7,33.6,49S57,36.9,62.4,42.3z"></path>
			<path class="st59" d="M62.3,42.4c5.4,5.4,2.7,15.4-8.9,27s-21.2,13.1-26.6,7.7s-4.7-16.5,6.9-28S56.9,37,62.3,42.4z"></path>
			<path class="st60" d="M62.1,42.5c5.3,5.3,2.7,15.3-8.8,26.8s-21.1,13-26.4,7.7c-5.3-5.3-4.7-16.3,6.8-27.8S56.8,37.1,62.1,42.5z"></path>
			<path class="st61" d="M62,42.6c5.3,5.3,2.6,15.2-8.8,26.6S32.3,82.1,27,76.8s-4.6-16.2,6.8-27.6S56.7,37.3,62,42.6z"></path>
			<path class="st62" d="M61.9,42.7c5.3,5.3,2.6,15.1-8.7,26.4s-20.8,12.8-26.1,7.5c-5.3-5.3-4.6-16.1,6.7-27.4S56.6,37.4,61.9,42.7
				z"></path>
			<path class="st62" d="M61.7,42.8c5.2,5.2,2.6,15-8.6,26.3s-20.7,12.7-25.9,7.5s-4.5-16,6.7-27.2S56.5,37.5,61.7,42.8z"></path>
			<path class="st63" d="M61.6,42.9c5.2,5.2,2.6,14.9-8.6,26.1s-20.5,12.6-25.7,7.4s-4.5-15.9,6.7-27S56.4,37.7,61.6,42.9z"></path>
			<path class="st64" d="M61.4,42.9c5.2,5.2,2.6,14.8-8.5,25.9s-20.4,12.5-25.5,7.4c-5.2-5.2-4.5-15.7,6.6-26.8S56.3,37.8,61.4,42.9
				z"></path>
			<path class="st65" d="M61.3,43c5.1,5.1,2.6,14.7-8.5,25.7s-20.2,12.4-25.4,7.3S23,60.5,34,49.4S56.1,37.9,61.3,43z"></path>
			<path class="st66" d="M61.1,43.1c5.1,5.1,2.5,14.6-8.4,25.6S32.6,81,27.5,75.9c-5.1-5.1-4.4-15.5,6.5-26.5S56,38,61.1,43.1z"></path>
			<path class="st67" d="M61,43.2c5.1,5.1,2.5,14.5-8.3,25.4s-20,12.3-25,7.2s-4.4-15.4,6.5-26.3S55.9,38.2,61,43.2z"></path>
			<path class="st68" d="M60.8,43.3c5,5,2.5,14.4-8.3,25.2s-19.8,12.2-24.8,7.1c-5-5-4.3-15.3,6.5-26.1S55.8,38.3,60.8,43.3z"></path>
			<path class="st69" d="M60.7,43.4c5,5,2.5,14.3-8.2,25s-19.7,12.1-24.7,7.1c-5-5-4.3-15.2,6.4-25.9S55.7,38.4,60.7,43.4z"></path>
			<path class="st70" d="M60.5,43.5c4.9,4.9,2.5,14.2-8.1,24.8s-19.6,12-24.5,7s-4.3-15,6.4-25.7S55.6,38.5,60.5,43.5z"></path>
			<path class="st71" d="M60.4,43.6c4.9,4.9,2.5,14.1-8.1,24.7s-19.4,11.9-24.3,7c-4.9-4.9-4.2-14.9,6.3-25.5S55.5,38.7,60.4,43.6z"></path>
			<path class="st72" d="M60.2,43.7c4.9,4.9,2.5,14-8,24.5s-19.3,11.8-24.2,6.9s-4.2-14.8,6.3-25.3S55.4,38.8,60.2,43.7z"></path>
			<path class="st73" d="M60.1,43.8c4.8,4.8,2.4,13.9-8,24.3s-19.1,11.7-24,6.9c-4.8-4.8-4.1-14.7,6.3-25.1S55.3,38.9,60.1,43.8z"></path>
			<path class="st74" d="M60,43.8c4.8,4.8,2.4,13.8-7.9,24.1s-19,11.6-23.8,6.8s-4.1-14.6,6.2-24.9S55.1,39,60,43.8z"></path>
			<path class="st75" d="M59.8,43.9c4.8,4.8,2.4,13.7-7.8,24s-18.9,11.5-23.6,6.7c-4.8-4.8-4.1-14.4,6.2-24.7S55,39.2,59.8,43.9z"></path>
			<path class="st76" d="M59.7,44c4.7,4.7,2.4,13.6-7.8,23.8s-18.7,11.4-23.5,6.7s-4-14.3,6.1-24.5S54.9,39.3,59.7,44z"></path>
			<path class="st77" d="M59.5,44.1c4.7,4.7,2.4,13.5-7.7,23.6S33.2,79,28.5,74.3c-4.7-4.7-4-14.2,6.1-24.3S54.8,39.4,59.5,44.1z"></path>
			<path class="st78" d="M59.4,44.2c4.7,4.7,2.4,13.4-7.6,23.4s-18.4,11.2-23.1,6.6s-4-14.1,6.1-24.1S54.7,39.5,59.4,44.2z"></path>
			<path class="st79" d="M59.2,44.3c4.6,4.6,2.4,13.3-7.6,23.2s-18.3,11.1-22.9,6.5c-4.6-4.6-3.9-14,6-23.9S54.6,39.7,59.2,44.3z"></path>
			<path class="st80" d="M59.1,44.4c4.6,4.6,2.3,13.2-7.5,23.1s-18.2,11-22.8,6.5s-3.9-13.9,6-23.7S54.5,39.8,59.1,44.4z"></path>
			<path class="st81" d="M58.9,44.5c4.5,4.5,2.3,13.1-7.5,22.9s-18,11-22.6,6.4S25,60,34.8,50.3S54.4,39.9,58.9,44.5z"></path>
			<path class="st82" d="M58.8,44.6c4.5,4.5,2.3,13-7.4,22.7S33.5,78.1,29,73.6c-4.5-4.5-3.8-13.6,5.9-23.3S54.3,40.1,58.8,44.6z"></path>
			<path class="st83" d="M58.6,44.7c4.5,4.5,2.3,12.9-7.3,22.5c-9.6,9.6-17.8,10.8-22.2,6.3S25.3,60,34.9,50.4S54.2,40.2,58.6,44.7z
				"></path>
			<path class="st84" d="M58.5,44.7c4.4,4.4,2.3,12.8-7.3,22.4s-17.6,10.7-22.1,6.2C24.7,68.9,25.4,60,35,50.4S54,40.3,58.5,44.7z"></path>
			<path class="st85" d="M58.3,44.8c4.4,4.4,2.3,12.7-7.2,22.2s-17.5,10.6-21.9,6.2S25.6,59.9,35,50.5S53.9,40.4,58.3,44.8z"></path>
			<path class="st86" d="M58.2,44.9c4.4,4.4,2.2,12.6-7.1,22S33.7,77.4,29.3,73c-4.4-4.4-3.7-13.1,5.7-22.5S53.8,40.6,58.2,44.9z"></path>
			<path class="st87" d="M58,45c4.3,4.3,2.2,12.5-7.1,21.8s-17.2,10.4-21.5,6.1s-3.6-13,5.7-22.3S53.7,40.7,58,45z"></path>
			<path class="st88" d="M57.9,45.1c4.3,4.3,2.2,12.4-7,21.6s-17.1,10.3-21.4,6s-3.6-12.9,5.6-22.1S53.6,40.8,57.9,45.1z"></path>
			<path class="st89" d="M57.8,45.2c4.3,4.3,2.2,12.3-7,21.5s-16.9,10.2-21.2,5.9c-4.3-4.3-3.6-12.8,5.6-21.9S53.5,40.9,57.8,45.2z"></path>
			<path class="st90" d="M57.6,45.3c4.2,4.2,2.2,12.2-6.9,21.3s-16.8,10.1-21,5.9s-3.5-12.7,5.6-21.7S53.4,41.1,57.6,45.3z"></path>
			<path class="st91" d="M57.5,45.4c4.2,4.2,2.2,12.1-6.8,21.1s-16.7,10-20.8,5.8c-4.2-4.2-3.5-12.6,5.5-21.6S53.3,41.2,57.5,45.4z"></path>
			<path class="st92" d="M57.3,45.5c4.2,4.2,2.2,12-6.8,20.9S34,76.3,29.9,72.2s-3.4-12.4,5.5-21.4S53.2,41.3,57.3,45.5z"></path>
			<path class="st93" d="M57.2,45.6c4.1,4.1,2.1,11.9-6.7,20.8S34.1,76.1,30,72c-4.1-4.1-3.4-12.3,5.4-21.2S53.1,41.4,57.2,45.6z"></path>
			<path class="st94" d="M57,45.7c4.1,4.1,2.1,11.8-6.6,20.6S34.1,76,30.1,71.9c-4.1-4.1-3.4-12.2,5.4-21S52.9,41.6,57,45.7z"></path>
			<path class="st94" d="M56.9,45.7c4,4,2.1,11.7-6.6,20.4s-16.1,9.6-20.1,5.6S26.8,59.7,35.5,51S52.8,41.7,56.9,45.7z"></path>
			<path class="st95" d="M56.7,45.8c4,4,2.1,11.6-6.5,20.2s-16,9.5-20,5.5c-4-4-3.3-12,5.3-20.6S52.7,41.8,56.7,45.8z"></path>
			<path class="st96" d="M56.6,45.9c4,4,2.1,11.5-6.5,20s-15.8,9.5-19.8,5.5s-3.3-11.8,5.3-20.4S52.6,42,56.6,45.9z"></path>
			<path class="st97" d="M56.4,46c3.9,3.9,2.1,11.4-6.4,19.9c-8.5,8.5-15.7,9.4-19.6,5.4c-3.9-3.9-3.2-11.7,5.2-20.2
				S52.5,42.1,56.4,46z"></path>
			<path class="st98" d="M56.3,46.1c3.9,3.9,2.1,11.3-6.3,19.7s-15.6,9.3-19.4,5.4s-3.2-11.6,5.2-20S52.4,42.2,56.3,46.1z"></path>
			<path class="st99" d="M56.1,46.2c3.9,3.9,2,11.2-6.3,19.5S34.5,74.9,30.6,71s-3.1-11.5,5.2-19.8S52.3,42.3,56.1,46.2z"></path>
			<path class="st100" d="M56,46.3c3.8,3.8,2,11.1-6.2,19.3s-15.3,9.1-19.1,5.3c-3.8-3.8-3.1-11.4,5.1-19.6S52.2,42.5,56,46.3z"></path>
			<path class="st101" d="M55.9,46.4c3.8,3.8,2,11-6.1,19.2s-15.1,9-18.9,5.2s-3.1-11.3,5.1-19.4S52.1,42.6,55.9,46.4z"></path>
			<path class="st102" d="M55.7,46.5c3.8,3.8,2,10.9-6.1,19s-15,8.9-18.8,5.1c-3.8-3.8-3-11.1,5-19.2S52,42.7,55.7,46.5z"></path>
			<path class="st103" d="M55.6,46.6c3.7,3.7,2,10.8-6,18.8S34.7,74.2,31,70.4s-3-11,5-19S51.8,42.8,55.6,46.6z"></path>
			<path class="st104" d="M55.4,46.6c3.7,3.7,2,10.7-5.9,18.6s-14.7,8.7-18.4,5c-3.7-3.7-3-10.9,4.9-18.8S51.7,43,55.4,46.6z"></path>
			<path class="st105" d="M55.3,46.7c3.6,3.6,1.9,10.6-5.9,18.4s-14.6,8.6-18.2,5s-2.9-10.8,4.9-18.6S51.6,43.1,55.3,46.7z"></path>
			<path class="st106" d="M55.1,46.8c3.6,3.6,1.9,10.5-5.8,18.3S34.8,73.6,31.2,70s-2.9-10.7,4.9-18.4S51.5,43.2,55.1,46.8z"></path>
			<path class="st107" d="M55,46.9c3.6,3.6,1.9,10.4-5.8,18.1s-14.3,8.4-17.9,4.9c-3.6-3.6-2.9-10.5,4.8-18.2S51.4,43.3,55,46.9z"></path>
			<path class="st108" d="M54.8,47c3.5,3.5,1.9,10.3-5.7,17.9S35,73.3,31.4,69.7s-2.8-10.4,4.8-18S51.3,43.5,54.8,47z"></path>
			<path class="st109" d="M54.7,47.1c3.5,3.5,1.9,10.2-5.6,17.7c-7.5,7.5-14,8.2-17.5,4.7c-3.5-3.5-2.8-10.3,4.7-17.8
				S51.2,43.6,54.7,47.1z"></path>
			<path class="st110" d="M54.5,47.2c3.5,3.5,1.9,10.1-5.6,17.6s-13.9,8.1-17.4,4.7s-2.7-10.2,4.7-17.6S51.1,43.7,54.5,47.2z"></path>
			<path class="st111" d="M54.4,47.3c3.4,3.4,1.9,10-5.5,17.4s-13.8,8.1-17.2,4.6c-3.4-3.4-2.7-10.1,4.7-17.4S51,43.9,54.4,47.3z"></path>
			<path class="st112" d="M54.2,47.4c3.4,3.4,1.8,9.9-5.4,17.2c-7.3,7.3-13.6,8-17,4.6c-3.4-3.4-2.7-10,4.6-17.2S50.8,44,54.2,47.4z
				"></path>
			<path class="st113" d="M54.1,47.5c3.4,3.4,1.8,9.8-5.4,17S35.2,72.4,31.9,69s-2.6-9.8,4.6-17S50.7,44.1,54.1,47.5z"></path>
			<path class="st114" d="M53.9,47.6c3.3,3.3,1.8,9.7-5.3,16.8S35.3,72.2,32,68.9c-3.3-3.3-2.6-9.7,4.5-16.9S50.6,44.2,53.9,47.6z"></path>
			<path class="st115" d="M53.8,47.6c3.3,3.3,1.8,9.6-5.3,16.7c-7.1,7.1-13.2,7.7-16.5,4.4s-2.6-9.6,4.5-16.7S50.5,44.4,53.8,47.6z"></path>
			<path class="st116" d="M53.7,47.7c3.2,3.2,1.8,9.5-5.2,16.5s-13.1,7.6-16.3,4.3s-2.5-9.5,4.5-16.5S50.4,44.5,53.7,47.7z"></path>
			<path class="st117" d="M53.5,47.8c3.2,3.2,1.8,9.4-5.1,16.3c-6.9,6.9-12.9,7.5-16.1,4.3c-3.2-3.2-2.5-9.4,4.4-16.3
				S50.3,44.6,53.5,47.8z"></path>
			<path class="st118" d="M53.4,47.9c3.2,3.2,1.7,9.3-5.1,16.1s-12.8,7.4-16,4.2c-3.2-3.2-2.4-9.2,4.4-16.1S50.2,44.7,53.4,47.9z"></path>
			<path class="st119" d="M53.2,48c3.1,3.1,1.7,9.2-5,16s-12.7,7.3-15.8,4.2S30,59,36.7,52.3S50.1,44.9,53.2,48z"></path>
			<path class="st120" d="M53.1,48.1c3.1,3.1,1.7,9.1-4.9,15.8S35.6,71.1,32.5,68c-3.1-3.1-2.4-9,4.3-15.7S50,45,53.1,48.1z"></path>
			<path class="st121" d="M52.9,48.2c3.1,3.1,1.7,9-4.9,15.6s-12.4,7.1-15.4,4.1s-2.3-8.9,4.2-15.5S49.9,45.1,52.9,48.2z"></path>
			<path class="st122" d="M52.8,48.3c3,3,1.7,8.9-4.8,15.4s-12.2,7-15.3,4c-3-3-2.3-8.8,4.2-15.3S49.7,45.2,52.8,48.3z"></path>
			<path class="st123" d="M52.6,48.4c3,3,1.7,8.8-4.8,15.2s-12.1,6.9-15.1,3.9s-2.3-8.7,4.2-15.1S49.6,45.4,52.6,48.4z"></path>
			<path class="st124" d="M52.5,48.5c3,3,1.7,8.7-4.7,15.1s-12,6.8-14.9,3.9c-3-3-2.2-8.5,4.1-14.9S49.5,45.5,52.5,48.5z"></path>
			<path class="st125" d="M52.3,48.5c2.9,2.9,1.6,8.6-4.6,14.9S35.9,70.2,33,67.3c-2.9-2.9-2.2-8.4,4.1-14.7S49.4,45.6,52.3,48.5z"></path>
			<path class="st126" d="M52.2,48.6c2.9,2.9,1.6,8.5-4.6,14.7S35.9,70,33,67.1s-2.2-8.3,4-14.5S49.3,45.8,52.2,48.6z"></path>
			<path class="st127" d="M52,48.7c2.8,2.8,1.6,8.4-4.5,14.5S36,69.8,33.1,67c-2.8-2.8-2.1-8.2,4-14.3S49.2,45.9,52,48.7z"></path>
			<path class="st128" d="M51.9,48.8c2.8,2.8,1.6,8.3-4.4,14.4S36,69.6,33.2,66.8s-2.1-8.1,4-14.1S49.1,46,51.9,48.8z"></path>
			<path class="st129" d="M51.8,48.9c2.8,2.8,1.6,8.2-4.4,14.2s-11.3,6.4-14,3.6c-2.8-2.8-2-7.9,3.9-13.9S49,46.1,51.8,48.9z"></path>
			<path class="st130" d="M51.6,49c2.7,2.7,1.6,8.1-4.3,14s-11.1,6.3-13.9,3.5c-2.7-2.7-2-7.8,3.9-13.7S48.9,46.3,51.6,49z"></path>
			<path class="st131" d="M51.5,49.1c2.7,2.7,1.6,8-4.3,13.8s-11,6.2-13.7,3.5c-2.7-2.7-2-7.7,3.8-13.5S48.8,46.4,51.5,49.1z"></path>
			<path class="st132" d="M51.3,49.2c2.7,2.7,1.5,7.9-4.2,13.6s-10.9,6.1-13.5,3.4c-2.7-2.7-1.9-7.6,3.8-13.3S48.6,46.5,51.3,49.2z"></path>
			<path class="st133" d="M51.2,49.3c2.6,2.6,1.5,7.8-4.1,13.5s-10.7,6-13.4,3.4s-1.9-7.5,3.8-13.1S48.5,46.6,51.2,49.3z"></path>
			<path class="st134" d="M51,49.4c2.6,2.6,1.5,7.7-4.1,13.3S36.4,68.6,33.8,66c-2.6-2.6-1.9-7.4,3.7-12.9S48.4,46.8,51,49.4z"></path>
			<path class="st135" d="M50.9,49.5c2.6,2.6,1.5,7.6-4,13.1s-10.4,5.8-13,3.3s-1.8-7.2,3.7-12.7S48.3,46.9,50.9,49.5z"></path>
			<path class="st136" d="M50.7,49.5c2.5,2.5,1.5,7.5-3.9,12.9c-5.4,5.4-10.3,5.7-12.8,3.2c-2.5-2.5-1.8-7.1,3.6-12.5
				S48.2,47,50.7,49.5z"></path>
			<path class="st136" d="M50.6,49.6c2.5,2.5,1.5,7.4-3.9,12.8S36.5,68,34,65.5c-2.5-2.5-1.7-7,3.6-12.3S48.1,47.1,50.6,49.6z"></path>
			<path class="st137" d="M50.4,49.7c2.5,2.5,1.4,7.3-3.8,12.6s-10,5.5-12.5,3.1c-2.5-2.5-1.7-6.9,3.6-12.2S48,47.3,50.4,49.7z"></path>
			<path class="st138" d="M50.3,49.8c2.4,2.4,1.4,7.2-3.8,12.4s-9.9,5.4-12.3,3c-2.4-2.4-1.7-6.8,3.5-12S47.9,47.4,50.3,49.8z"></path>
			<path class="st139" d="M50.1,49.9c2.4,2.4,1.4,7.1-3.7,12.2s-9.8,5.3-12.1,3s-1.6-6.6,3.5-11.8S47.8,47.5,50.1,49.9z"></path>
			<path class="st140" d="M50,50c2.3,2.3,1.4,7-3.6,12s-9.6,5.3-12,2.9c-2.3-2.3-1.6-6.5,3.4-11.6S47.7,47.7,50,50z"></path>
			<path class="st140" d="M49.8,50.1c2.3,2.3,1.4,6.9-3.6,11.9s-9.5,5.2-11.8,2.9c-2.3-2.3-1.6-6.4,3.4-11.4S47.5,47.8,49.8,50.1z"></path>
			<path class="st141" d="M49.7,50.2c2.3,2.3,1.4,6.8-3.5,11.7s-9.3,5.1-11.6,2.8c-2.3-2.3-1.5-6.3,3.3-11.2S47.4,47.9,49.7,50.2z"></path>
			<path class="st142" d="M49.6,50.3c2.2,2.2,1.4,6.7-3.4,11.5s-9.2,5-11.4,2.7c-2.2-2.2-1.5-6.2,3.3-11S47.3,48,49.6,50.3z"></path>
			<path class="st143" d="M49.4,50.4c2.2,2.2,1.3,6.6-3.4,11.3s-9.1,4.9-11.3,2.7s-1.5-6.1,3.3-10.8S47.2,48.2,49.4,50.4z"></path>
			<path class="st144" d="M49.3,50.4c2.2,2.2,1.3,6.5-3.3,11.2s-8.9,4.8-11.1,2.6c-2.2-2.2-1.4-5.9,3.2-10.6S47.1,48.3,49.3,50.4z"></path>
			<path class="st145" d="M49.1,50.5c2.1,2.1,1.3,6.4-3.3,11s-8.8,4.7-10.9,2.6c-2.1-2.1-1.4-5.8,3.2-10.4S47,48.4,49.1,50.5z"></path>
			<path class="st145" d="M49,50.6c2.1,2.1,1.3,6.3-3.2,10.8S37.1,66,35,63.9c-2.1-2.1-1.3-5.7,3.1-10.2S46.9,48.5,49,50.6z"></path>
			<path class="st146" d="M48.8,50.7c2.1,2.1,1.3,6.2-3.1,10.6s-8.5,4.5-10.6,2.5c-2.1-2.1-1.3-5.6,3.1-10S46.8,48.7,48.8,50.7z"></path>
			<path class="st147" d="M48.7,50.8c2,2,1.3,6.1-3.1,10.4s-8.4,4.4-10.4,2.4c-2-2-1.3-5.5,3.1-9.8S46.7,48.8,48.7,50.8z"></path>
			<path class="st148" d="M48.5,50.9c2,2,1.2,6-3,10.3c-4.3,4.3-8.2,4.3-10.2,2.3c-2-2-1.2-5.4,3-9.6S46.5,48.9,48.5,50.9z"></path>
			<path class="st149" d="M48.4,51c1.9,1.9,1.2,5.9-2.9,10.1s-8.1,4.2-10,2.3c-1.9-1.9-1.2-5.2,3-9.4S46.4,49,48.4,51z"></path>
			<path class="st150" d="M48.2,51.1c1.9,1.9,1.2,5.8-2.9,9.9s-8,4.1-9.9,2.2c-1.9-1.9-1.2-5.1,2.9-9.2S46.3,49.2,48.2,51.1z"></path>
			<path class="st151" d="M48.1,51.2c1.9,1.9,1.2,5.7-2.8,9.7s-7.8,4-9.7,2.2c-1.9-1.9-1.1-5,2.9-9S46.2,49.3,48.1,51.2z"></path>
			<path class="st152" d="M47.9,51.3c1.8,1.8,1.2,5.6-2.8,9.6s-7.7,3.9-9.5,2.1c-1.8-1.8-1.1-4.9,2.9-8.8S46.1,49.4,47.9,51.3z"></path>
			<path class="st153" d="M47.8,51.3c1.8,1.8,1.2,5.5-2.7,9.4s-7.5,3.8-9.3,2.1c-1.8-1.8-1-4.8,2.8-8.6S46,49.6,47.8,51.3z"></path>
			<path class="st154" d="M47.6,51.4c1.8,1.8,1.2,5.4-2.6,9.2c-3.8,3.8-7.4,3.8-9.2,2c-1.8-1.8-1-4.6,2.8-8.4
				C42.4,50.4,45.9,49.7,47.6,51.4z"></path>
			<path class="st155" d="M47.5,51.5c1.7,1.7,1.1,5.3-2.6,9c-3.7,3.7-7.3,3.7-9,1.9s-1-4.5,2.7-8.2C42.4,50.5,45.8,49.8,47.5,51.5z"></path>
			<path class="st156" d="M47.4,51.6c1.7,1.7,1.1,5.2-2.5,8.8c-3.6,3.6-7.1,3.6-8.8,1.9c-1.7-1.7-0.9-4.4,2.7-8
				C42.4,50.7,45.7,49.9,47.4,51.6z"></path>
			<path class="st157" d="M47.2,51.7c1.7,1.7,1.1,5.1-2.4,8.7c-3.6,3.6-7,3.5-8.7,1.8c-1.7-1.7-0.9-4.3,2.7-7.8
				C42.3,50.8,45.6,50.1,47.2,51.7z"></path>
			<path class="st158" d="M47.1,51.8c1.6,1.6,1.1,5-2.4,8.5c-3.5,3.5-6.9,3.4-8.5,1.8s-0.9-4.2,2.6-7.6
				C42.3,50.9,45.4,50.2,47.1,51.8z"></path>
			<path class="st159" d="M46.9,51.9c1.6,1.6,1.1,4.9-2.3,8.3s-6.7,3.3-8.3,1.7s-0.8-4.1,2.6-7.5C42.3,51.1,45.3,50.3,46.9,51.9z"></path>
			<path class="st160" d="M46.8,52c1.5,1.5,1.1,4.8-2.3,8.1c-3.3,3.3-6.6,3.2-8.1,1.7s-0.8-3.9,2.5-7.3C42.2,51.2,45.2,50.4,46.8,52
				z"></path>
			<path class="st161" d="M46.6,52.1c1.5,1.5,1.1,4.7-2.2,8s-6.4,3.1-8,1.6c-1.5-1.5-0.8-3.8,2.5-7.1C42.2,51.3,45.1,50.6,46.6,52.1
				z"></path>
		</g>
		<g>
			<path class="st162" d="M71.9,94.8C68.2,85.4,68,71.1,68,71.1s-0.8,0.6-1.6,0.6c-0.9,0-1.6-0.8-1.7-2c-0.1-0.8,0.1-2.1,1.7-3.3
				c0.2-0.2,1.5-0.9,1.5-0.9s0.1-2.1,0.1-4.8c0-2.6,1.4-4.7,3.7-4.7c1.8,0,2.2,1.7,2.2,3.5l-0.1,3.2c0,0,2.1-1,3-0.9
				c0.9,0,1.5,0.5,1.7,1.4c0.3,1.3-0.3,3-2,3.7c-0.6,0.3-1.8,0.8-2.7,1.2c0,0,0.2,17.8,4.3,26.1c0.2,0.5,0.3,0.9,0.3,1.3
				c0,1.8-1.4,2.8-2.8,2.8C74,98.4,72.9,97.2,71.9,94.8z"></path>
			<path class="st162" d="M57.5,65.3c0-2.5,1.1-4.8,3.4-4.8c1.5,0,2.3,1.1,2.4,3.2c0.4,15,2.5,27.9,5.9,36.3
				c0.1,0.3,0.2,0.4,0.2,1.1c0,1.7-1.6,2.3-2.5,2.3c-1.5,0-2.6-1-3.5-2.9C59,91.5,57.5,70.5,57.5,65.3z"></path>
			<path class="st162" d="M77.4,76.8c0-8.7,4.4-16.6,10-16.6c5.1,0,6.1,5.7,6.1,8c0,6.4-4.4,12.9-9.6,14.3c0,0,0.7,3.7,3.4,3.7
				c0.8,0,2.7-0.4,3.2-2.6c0.3-1.1,0.4-4.1,2.5-4.1c2,0,2.6,2.3,2.6,3.9c0,4.1-2.9,8-8.1,8C79.8,91.4,77.4,82.6,77.4,76.8z M82.8,75
				c0,1.6,0.4,1.9,0.7,1.9c1.4,0,5-4.3,5-8.6c0-2.7-1.6-2.7-1.7-2.7C84.1,65.6,82.8,73.1,82.8,75z"></path>
			<path class="st162" d="M40.1,93.6c0-9.6,4-13.3,7.5-13.3c1.8,0,2.7,0.9,2.7,0.9c-0.3-1.8,0.9-3.7,2.5-3.7c1.7,0,2.5,1.5,2.6,2.5
				c0.8,7.6,2.6,16.4,4.8,21.2c1.2,2.5,2.1,3.6,2.1,4.6c0,1.3-1.3,2.2-2.4,2.2c-0.9,0-1.7-0.4-2.3-0.9c-0.4-0.3-0.4-0.4-0.5-0.4
				c-0.1,0-0.1,0.3-0.2,0.6c-0.3,2.6-1.8,7.3-6,7.3C44,114.7,40.1,103.9,40.1,93.6z M48.5,86.5c-1.4,0-2.4,2-2.4,6.1
				c0,5.8,1.9,15.4,4.7,15.4c1.8,0,1.9-3.8,1.9-4.8C52.6,98,51.4,86.5,48.5,86.5z"></path>
			<path class="st162" d="M96.2,78.9c0-2.1,1.2-4.2,2.8-4.2c2.3,0,2.3,2.1,2.3,2.4c0,0.6-0.7,3.8,2.3,3.8c2.1,0,2.5-1.9,2.5-2.6
				c0-5.3-10.5-7.2-10.5-14.8c0-5.1,4.4-7.2,7.2-7.2c3.9,0,7.1,3.1,7.1,5.9c0,2.1-1.8,2.2-2.2,2.2c-1.2,0-1.8-0.6-2.2-1.6
				c-0.4-1-1.3-1.7-2.4-1.7c-1.4,0-1.9,1.4-1.9,2.1c0,4.3,10,5.7,10,14.5c0,6.5-5,8.4-8.2,8.4C97.4,86.1,96.2,81.5,96.2,78.9z"></path>
			<path class="st162" d="M136.8,75.3c0.1-2.6,1.3-3.5,2.3-3.5c0.2,0,1.8,0.1,1.7,2.1c0,0.3-0.6,3.3,1.6,3.4c1,0,2-0.8,2.1-2.3
				c0.1-3.5-6.4-6.4-6.3-12.7c0-1.7,1-5.5,4.5-5.5c2.7,0.1,4.6,2.5,4.6,5c0,1.4-0.9,2-1.7,2c-0.7,0-1.2-0.5-1.3-1.2
				c-0.2-1.3-0.8-1.6-1.2-1.6c-0.8,0-1.1,0.9-1.1,1.5c-0.1,3.5,6.8,6.1,6.6,12.6c-0.1,2.3-1.5,6.5-6.4,6.4
				C138.2,81.4,136.8,78.1,136.8,75.3z"></path>
			<path class="st162" d="M131.5,81.5c-2.6-0.1-2.6-2.8-2.6-2.9c0.3-7.6-0.1-13.9-1.3-20c-0.2-1-0.5-3.2,1.7-3.2
				c3,0,2.6,3.4,2.6,3.4s0.8-2.7,3.3-2.6c1.3,0,2.3,1.3,2.3,2.6c0,1.1-0.7,2.5-2.2,2.5c-0.5,0-0.8-0.1-1.1,0
				c-1.1,0.4-1.2,1.6-1.3,2.3c-0.1,2.9,1.4,8.9,1.2,14.1C134.2,78.9,134.1,81.5,131.5,81.5z"></path>
			<path class="st162" d="M112,68.8c0.2-9.9,4.4-14.1,8.8-14c2.9,0.1,5.6,2.4,5.5,7.5c-0.2,7.3-5.9,11.7-8.7,12.1
				c0,0,0.5,3.5,2.7,3.5c1.3,0,2.4-0.3,2.8-3c0.2-1.2,0.9-2.3,2.2-2.3c1.6,0,1.9,1.6,1.9,3c-0.1,3.9-2.4,7-6.7,7
				C113.5,82.7,111.9,74.1,112,68.8z M122,61.9c0-1.2-0.4-2.2-1.3-2.2c-1.9,0-3.7,5.5-3.8,8.4c0,0.4,0,1.2,0.5,1.2
				C118.7,69.4,121.9,65.6,122,61.9z"></path>
			<path class="st162" d="M31.6,79.4c-4.8,0-7.2,11.1-7.2,12c0,0-0.6-4-2.8-4c-2.8,0-5.9,5.9-5.9,12.2c0,0-0.5-4.1-2.7-4.1
				c-2.7,0-3.7,6.4-3.7,8.6c0,1.9,0.3,5.2,2.2,5.2c1.6,0,2-2.5,2-2.5s0.5,8.8,5.7,19c2.1,4.2,4.3,8.1,8.4,12.4
				c0.8,0.8,3.9,3.6,5.7,1.3c1.1-1.3,0.5-2.6-0.4-3.8c-1.4-1.9-4-3.9-8.4-12.5c-5.5-10.7-5.9-22.6-3.6-22.6c0.9,0,0.9,0.8,1.7,5
				c2.2,10.9,6,17.4,9.8,22.4c1.3,1.7,4.6,5.7,7.1,2.7c1.2-1.4,0.6-2.9-0.5-4.2c-1-1.2-3-2.8-6-8.6c-3.6-7.1-5.3-14.7-5.3-21
				c0-0.7,0.2-3.7,1.6-3.9c2.2-0.3,0,9.3,7.6,23.3c2.8,5.1,4.9,7.1,6.7,7.1c1.4,0,2.8-1,2.8-2.6c0-3-2.5-2.3-5.7-9.5
				C33.7,94.9,37.3,79.4,31.6,79.4z"></path>
		</g>
		<g>
			<path class="st162" d="M152.9,80.1c0,1.3-1,2.4-2.4,2.4c-1.3,0-2.4-1-2.4-2.4c0-1.3,1.1-2.3,2.4-2.3
				C151.9,77.8,152.9,78.8,152.9,80.1 M148.6,80.1c0,1.1,0.8,2,2,2c1.1,0,1.9-0.9,1.9-2c0-1.1-0.8-2-1.9-2
				C149.4,78.1,148.6,79,148.6,80.1"></path>
			<path class="st162" d="M151.7,81.3c-0.1-0.1-0.1-0.2-0.2-0.6v0c-0.1-0.3-0.2-0.5-0.4-0.6c0.3-0.1,0.4-0.3,0.4-0.6
				c0-0.2-0.1-0.4-0.2-0.6c-0.2-0.1-0.4-0.2-0.8-0.2c-0.4,0-0.7,0-0.9,0.1l0,0v2.4h0.6v-0.9h0.2c0.3,0,0.4,0.1,0.4,0.3
				c0,0,0,0.1,0,0.1c0.1,0.2,0.1,0.4,0.2,0.4l0,0L151.7,81.3L151.7,81.3z M150.9,79.7c0,0.3-0.3,0.3-0.5,0.3h-0.2v-0.6
				c0,0,0.1,0,0.2,0C150.7,79.4,150.9,79.4,150.9,79.7z"></path>
		</g>
	</g>
</g>
</svg>